<svg width="544" height="600" viewBox="0 0 544 600" fill="none" xmlns="http://www.w3.org/2000/svg">
<path d="M169.381 566.357C250.138 611.214 381.086 611.214 461.842 566.357C542.599 521.501 542.599 448.791 461.842 403.935C381.086 359.078 250.138 359.094 169.381 403.935C88.6246 448.776 88.6246 521.437 169.381 566.357Z" fill="#F5F5F5"/>
<path d="M223.549 383.947C223.174 383.405 223.384 347.082 211.8 336.282C200.216 325.483 189.998 334.049 196.705 346.986C201.207 355.521 213.646 370.627 213.661 385.095L223.549 383.947Z" fill="#285E89"/>
<path opacity="0.6" d="M223.549 383.947C223.174 383.405 223.384 347.082 211.8 336.282C200.216 325.483 189.998 334.049 196.705 346.986C201.207 355.521 213.646 370.627 213.661 385.095L223.549 383.947Z" fill="white"/>
<path d="M219.483 384.792C219.329 384.793 219.181 384.733 219.068 384.624C218.954 384.515 218.882 384.364 218.867 384.202C215.386 349.379 202.272 336.905 202.137 336.777C202.014 336.663 201.938 336.501 201.927 336.328C201.916 336.154 201.97 335.983 202.077 335.852C202.184 335.721 202.336 335.64 202.5 335.628C202.663 335.616 202.824 335.674 202.947 335.788C203.502 336.298 216.572 348.661 220.098 384.059C220.115 384.234 220.066 384.409 219.962 384.547C219.858 384.684 219.707 384.772 219.543 384.792H219.483Z" fill="white"/>
<path d="M221.313 422.391C217.067 401.893 211.005 389.993 187.012 376.864C164.91 364.757 145.899 351.963 168.001 347.321C186.352 343.461 221.674 374.439 222.934 401.558L221.313 422.391Z" fill="#285E89"/>
<path d="M218.958 396.629C218.832 396.631 218.708 396.593 218.604 396.519C218.499 396.445 218.418 396.338 218.372 396.214C211.125 375.668 187.972 355.792 167.911 352.809C167.749 352.781 167.603 352.687 167.505 352.547C167.407 352.407 167.364 352.232 167.386 352.059C167.397 351.973 167.424 351.89 167.465 351.815C167.507 351.74 167.562 351.674 167.628 351.622C167.693 351.57 167.768 351.533 167.848 351.512C167.927 351.491 168.01 351.487 168.091 351.501C188.588 354.547 212.145 374.806 219.543 395.751C219.596 395.916 219.587 396.097 219.517 396.255C219.447 396.413 219.321 396.536 219.168 396.597L218.958 396.629Z" fill="white"/>
<path d="M397.936 453.481C397.306 454.375 397.201 456.432 396.556 459.224C395.903 461.277 395.754 463.473 396.121 465.605C397.629 468.281 400.02 470.265 402.828 471.172C406.279 472.321 410.525 471.363 414.637 468.747C418.748 466.131 421.854 462.957 427.721 461.186C433.588 459.415 436.499 457.996 439.275 455.603C442.531 452.827 446.867 445.17 440.655 443.4C434.443 441.629 420.924 447.882 408.635 448.456L397.936 453.481Z" fill="#263238"/>
<path d="M397.936 445.314V455.109C398.308 456.212 398.964 457.183 399.828 457.91C400.693 458.638 401.732 459.093 402.828 459.224C403.838 459.397 404.874 459.281 405.829 458.889C407.321 458.28 408.614 457.223 409.552 455.846C410.489 454.47 411.031 452.834 411.11 451.137L411.471 445.314H397.936Z" fill="#F3C7A7"/>
<path d="M415.522 384.824C415.597 396.996 412.311 449.605 412.311 449.605C412.311 449.605 407.629 455.906 397.456 449.605L393.99 390.886L415.522 384.824Z" fill="#285E89"/>
<path opacity="0.5" d="M415.522 384.824C415.597 396.996 412.311 449.605 412.311 449.605C412.311 449.605 407.629 455.906 397.456 449.605L393.99 390.886L415.522 384.824Z" fill="black"/>
<path d="M385.812 495.244C387.103 485.082 397.021 465.972 414.052 457.9C431.082 449.829 451.684 452.11 455.6 455.619C459.517 459.129 460.537 466.466 452.344 468.827C444.152 471.188 437.714 475.208 442.786 479.754C447.858 484.301 449.433 490.57 441.136 492.277C432.838 493.984 423.04 487.698 420.729 493.314C418.418 498.929 423.295 503.236 414.052 505.262C404.809 507.288 393.45 499.694 387.043 510.893L385.812 495.244Z" fill="#285E89"/>
<path d="M386.367 502.932C386.288 502.947 386.207 502.947 386.127 502.932C386.052 502.899 385.984 502.85 385.927 502.789C385.869 502.728 385.824 502.655 385.793 502.575C385.762 502.495 385.747 502.409 385.748 502.322C385.748 502.236 385.765 502.15 385.797 502.071C398.431 470.167 434.953 455.81 447.693 456.672C447.857 456.684 448.011 456.764 448.12 456.895C448.229 457.027 448.286 457.198 448.278 457.373C448.274 457.461 448.254 457.546 448.218 457.625C448.183 457.704 448.133 457.775 448.071 457.833C448.01 457.891 447.938 457.935 447.86 457.963C447.782 457.991 447.7 458.002 447.618 457.996C437.504 457.342 400.097 469.449 386.938 502.581C386.884 502.691 386.801 502.783 386.7 502.845C386.599 502.907 386.484 502.937 386.367 502.932Z" fill="white"/>
<path d="M436.379 483.407C436.294 483.422 436.208 483.422 436.124 483.407C435.959 483.311 418.808 475.24 402.963 479.02C402.884 479.041 402.802 479.045 402.721 479.032C402.641 479.018 402.564 478.987 402.495 478.941C402.427 478.895 402.367 478.834 402.321 478.763C402.275 478.691 402.244 478.611 402.228 478.526C402.21 478.442 402.208 478.355 402.222 478.271C402.235 478.186 402.265 478.105 402.308 478.033C402.395 477.886 402.534 477.782 402.693 477.744C418.943 473.868 436.469 482.115 436.634 482.195C436.768 482.252 436.88 482.359 436.948 482.495C437.016 482.631 437.036 482.788 437.006 482.939C436.975 483.09 436.896 483.224 436.781 483.319C436.666 483.413 436.524 483.461 436.379 483.455V483.407Z" fill="white"/>
<path d="M295.483 335.676L241.81 368.617L369.292 446.861L409.55 422.152L422.964 413.921L295.483 335.676Z" fill="#285E89"/>
<path d="M422.964 413.92V422.167L382.706 446.877L382.691 438.63L422.964 413.92Z" fill="#285E89"/>
<path opacity="0.2" d="M422.964 413.92V422.167L382.706 446.877L382.691 438.63L422.964 413.92Z" fill="black"/>
<path d="M301.23 376.864C301.23 376.864 348.24 361.773 356.403 359.397C364.565 357.02 380.261 353.016 384.837 355.201C389.414 357.387 391.739 359.907 392.159 366.942C392.249 368.266 392.159 374.695 392.159 374.695C392.159 374.695 369.442 382.16 350.836 382.16C332.23 382.16 301.23 376.864 301.23 376.864Z" fill="#285E89"/>
<path opacity="0.6" d="M301.23 376.864C301.23 376.864 348.24 361.773 356.403 359.397C364.565 357.02 380.261 353.016 384.837 355.201C389.414 357.387 391.739 359.907 392.159 366.942C392.249 368.266 392.159 374.695 392.159 374.695C392.159 374.695 369.442 382.16 350.836 382.16C332.23 382.16 301.23 376.864 301.23 376.864Z" fill="black"/>
<path d="M341.413 291.936L338.292 309.85L321.006 311.972L323.497 287.246L341.413 291.936Z" fill="#F3C7A7"/>
<path d="M357.528 277.627C357.528 277.627 359.794 285.013 359.104 285.476C357.861 285.756 356.586 285.831 355.322 285.699L357.528 277.627Z" fill="#F2B284"/>
<path d="M353.027 253.938C356.028 257.272 358.833 262.84 357.528 276.957C356.163 292.431 351.811 296.562 350.026 297.455C347.28 298.811 338.022 296.45 334.931 294.074C331.149 291.107 324.007 283.705 322.146 274.596C319.956 263.877 322.762 251.689 330.129 249.217C340.572 245.723 350.566 251.115 353.027 253.938Z" fill="#F3C7A7"/>
<path d="M359.884 261.547C358.113 265.089 354.782 273.91 345.314 276.399C345.314 276.399 344.789 270.401 340.107 270.337C335.426 270.273 333.835 276.415 336.161 280.69C338.487 284.965 341.413 283.992 341.413 283.992C341.413 283.992 340.933 292.43 335.216 295.445C335.216 295.445 328.328 298.779 322.056 294.52C319.235 292.606 315.964 284.295 314.284 277.627C310.713 263.525 311.358 252.726 319.791 250.509C321.561 244.59 324.427 242.692 329.724 242.325C341.158 241.512 348.54 250.509 358.038 250.509C362.99 250.509 361.894 257.511 359.884 261.547Z" fill="#263238"/>
<path d="M320.016 251.531L314.284 248.914C314.444 248.515 314.677 248.153 314.969 247.85C315.261 247.546 315.607 247.307 315.986 247.146C316.365 246.984 316.77 246.904 317.178 246.909C317.587 246.914 317.99 247.004 318.365 247.175C318.741 247.346 319.081 247.593 319.366 247.904C319.652 248.214 319.877 248.582 320.029 248.985C320.181 249.388 320.256 249.819 320.252 250.253C320.247 250.687 320.162 251.116 320.001 251.515L320.016 251.531Z" fill="#263238"/>
<path d="M301.35 370.85C301.35 380.421 300.494 390.439 304.261 397.474C308.027 404.509 325.087 418.993 344.294 415.548C356.838 413.298 397.396 396.868 397.396 396.868C397.396 396.868 415.402 389.833 415.522 384.824C415.642 377.423 415.162 367.022 399.422 367.469C385.077 367.867 342.508 375.285 342.508 375.285L301.35 370.85Z" fill="#285E89"/>
<path opacity="0.5" d="M301.35 370.85C301.35 380.421 300.494 390.439 304.261 397.474C308.027 404.509 325.087 418.993 344.294 415.548C356.838 413.298 397.396 396.868 397.396 396.868C397.396 396.868 415.402 389.833 415.522 384.824C415.642 377.423 415.162 367.022 399.422 367.469C385.077 367.867 342.508 375.285 342.508 375.285L301.35 370.85Z" fill="black"/>
<path d="M304.696 308.797C306.196 303.789 312.198 298.333 318.2 299.513C329.199 301.683 341.233 305.479 344.414 306.469C344.414 306.469 342.913 332.247 355.412 339.968L357.048 372.781C357.048 372.781 353.972 379.305 349.23 382.527C344.084 385.989 336.941 391.205 324.022 390.057C319.552 389.682 315.208 388.306 311.274 386.018C307.341 383.731 303.907 380.584 301.199 376.785C301.199 376.785 301.35 345.774 301.845 331.896C302.295 320.187 303.63 312.243 304.696 308.797Z" fill="#285E89"/>
<path opacity="0.2" d="M304.696 308.797C306.196 303.789 312.198 298.333 318.2 299.513C329.199 301.683 341.233 305.479 344.414 306.469C344.414 306.469 342.913 332.247 355.412 339.968L357.048 372.781C357.048 372.781 353.972 379.305 349.23 382.527C344.084 385.989 336.941 391.205 324.022 390.057C319.552 389.682 315.208 388.306 311.274 386.018C307.341 383.731 303.907 380.584 301.199 376.785C301.199 376.785 301.35 345.774 301.845 331.896C302.295 320.187 303.63 312.243 304.696 308.797Z" fill="black"/>
<path d="M355.757 346.396C355.757 346.396 349.26 339.234 346.979 330.923C346.979 330.923 346.979 343.078 355.892 349.65L355.757 346.396Z" fill="#285E89"/>
<path opacity="0.4" d="M355.757 346.396C355.757 346.396 349.26 339.234 346.979 330.923C346.979 330.923 346.979 343.078 355.892 349.65L355.757 346.396Z" fill="black"/>
<path d="M398.476 322.851L405.454 312.195C405.454 312.195 407.119 309.627 407.734 308.558C408.35 307.489 408.77 303.916 406.714 303.007C402.993 301.411 395.25 297.471 392.985 297.455C392.054 297.455 388.168 304.378 381.506 313.71C377.514 319.294 372.008 327.046 372.008 327.732C372.008 328.418 370.582 329.12 376.374 332.263C380.526 334.429 384.824 336.264 389.233 337.75L398.476 322.851Z" fill="#285E89"/>
<path opacity="0.6" d="M398.476 322.851L405.454 312.195C405.454 312.195 407.119 309.627 407.734 308.558C408.35 307.489 408.77 303.916 406.714 303.007C402.993 301.411 395.25 297.471 392.985 297.455C392.054 297.455 388.168 304.378 381.506 313.71C377.514 319.294 372.008 327.046 372.008 327.732C372.008 328.418 370.582 329.12 376.374 332.263C380.526 334.429 384.824 336.264 389.233 337.75L398.476 322.851Z" fill="black"/>
<path d="M402.918 311.286C398.641 317.826 389.518 334.001 389.248 334.448C388.978 334.895 375.744 328.817 372.188 327.174C372.1 327.348 372.039 327.537 372.008 327.732C372.008 328.402 370.582 329.12 376.374 332.262C380.526 334.429 384.824 336.264 389.233 337.75L398.476 322.851L405.454 312.195C405.454 312.195 407.119 309.627 407.734 308.558C408.35 307.489 408.77 303.916 406.714 303.007C407.119 303.23 407.179 304.745 402.918 311.286Z" fill="#263238"/>
<path d="M391.634 300.853L404.839 306.548L390.104 330.492L376.944 324.494L391.634 300.853Z" fill="#285E89"/>
<path opacity="0.8" d="M391.634 300.853L404.839 306.548L390.104 330.492L376.944 324.494L391.634 300.853Z" fill="white"/>
<path d="M344.444 306.469C351.226 308.638 355.367 309.037 362.87 321.304C370.372 333.571 386.803 357.898 388.378 360.833C390.644 364.901 391.619 369.734 389.669 373.483C387.838 376.96 382.526 375.445 375.084 368.49C367.881 361.774 353.627 342.791 353.627 342.791C348.931 331.219 345.838 318.984 344.444 306.469Z" fill="#F3C7A7"/>
<path d="M388.063 375.285C391.499 374.232 396.676 360.657 400.637 345.264C404.598 329.87 406.639 326.44 406.639 321.591C406.639 316.742 406.429 310.552 406.429 310.552L399.647 320.937C399.374 318.901 398.797 316.924 397.936 315.083C397.066 313.184 395.43 311.701 394.095 312.833C393.375 313.44 395.265 316.024 394.86 321.878C394.74 324.211 394.876 326.55 395.265 328.849L382.631 361.359L388.063 375.285Z" fill="#F3C7A7"/>
<path d="M344.444 306.469C347.81 307.228 351.097 308.339 354.257 309.787C357.307 311.062 359.901 313.329 361.669 316.263C366.921 325.531 374.423 338.723 374.423 338.723C374.423 338.723 375.714 350.209 362.585 354.229L355.592 346.253C352.735 343.004 350.389 339.288 348.645 335.246C345.689 328.291 342.313 317.316 344.444 306.469Z" fill="#285E89"/>
<path opacity="0.2" d="M344.444 306.469C347.81 307.228 351.097 308.339 354.257 309.787C357.307 311.062 359.901 313.329 361.669 316.263C366.921 325.531 374.423 338.723 374.423 338.723C374.423 338.723 375.714 350.209 362.585 354.229L355.592 346.253C352.735 343.004 350.389 339.288 348.645 335.246C345.689 328.291 342.313 317.316 344.444 306.469Z" fill="black"/>
<path d="M362.135 154.207L222.124 68.2734C218.598 66.1039 215.672 67.4439 215.086 71.2245C215.413 68.8501 216.209 66.5763 217.422 64.5526C218.635 62.529 220.237 60.8014 222.124 59.4838L227.946 55.8946C230.161 54.6993 232.611 54.0764 235.095 54.0764C237.58 54.0764 240.03 54.6993 242.245 55.8946L382.271 141.828C384.378 143.24 386.117 145.193 387.328 147.507L367.191 159.87C365.992 157.551 364.25 155.601 362.135 154.207Z" fill="#37474F"/>
<path d="M389.413 508.101C389.28 510.739 388.562 513.306 387.318 515.593C386.075 517.88 384.34 519.822 382.256 521.261L376.434 524.882C374.417 525.958 372.208 526.568 369.953 526.673C367.698 526.777 365.448 526.374 363.35 525.488C366.726 526.844 369.352 524.818 369.352 520.48V167.367C369.262 164.724 368.539 162.149 367.251 159.885L387.388 147.523C388.67 149.793 389.387 152.373 389.473 155.02L389.413 508.101Z" fill="#263238"/>
<path d="M362.134 154.207L222.124 68.2737C218.177 65.849 214.981 67.811 214.981 72.6604V425.741C215.116 428.377 215.833 430.942 217.074 433.228C218.315 435.514 220.045 437.458 222.124 438.902L362.134 524.883C366.096 527.291 369.277 525.329 369.277 520.48V167.367C369.145 164.731 368.43 162.164 367.188 159.878C365.947 157.591 364.216 155.648 362.134 154.207ZM362.57 470.423C362.57 473.342 360.664 474.522 358.278 473.055L225.98 391.843C224.717 390.974 223.667 389.797 222.918 388.41C222.169 387.022 221.742 385.465 221.673 383.867V122.686C221.673 119.767 223.594 118.586 225.98 120.054L231.247 123.244L358.278 201.233C359.539 202.103 360.587 203.281 361.333 204.668C362.08 206.056 362.503 207.613 362.57 209.209V470.423Z" fill="#455A64"/>
<path d="M292.122 124.632C292.856 125.136 293.468 125.818 293.906 126.622C294.345 127.426 294.597 128.33 294.643 129.258C294.643 130.965 293.517 131.667 292.122 130.853C291.391 130.346 290.784 129.662 290.349 128.859C289.913 128.055 289.662 127.153 289.616 126.227C289.616 124.488 290.741 123.77 292.122 124.632Z" fill="#263238"/>
<path d="M292.122 444.995C295.004 447.007 297.401 449.711 299.119 452.89C300.837 456.068 301.827 459.632 302.01 463.292C302.01 470.024 297.508 472.768 292.077 469.386C289.187 467.382 286.782 464.683 285.056 461.507C283.33 458.331 282.332 454.767 282.143 451.105C282.188 444.357 286.645 441.629 292.122 444.995Z" fill="#263238"/>
<path d="M315.889 151.814C317.354 152.828 318.573 154.193 319.449 155.8C320.325 157.408 320.832 159.212 320.931 161.066C320.931 164.48 318.665 165.852 315.889 164.161C314.426 163.144 313.208 161.775 312.335 160.165C311.461 158.555 310.957 156.749 310.863 154.893C310.863 151.479 313.113 150.107 315.889 151.814Z" fill="#263238"/>
<path d="M303.585 150.65C303.585 152.931 301.995 153.84 300.014 152.58L266.913 132.257C265.882 131.572 265.02 130.636 264.396 129.526C263.773 128.417 263.406 127.166 263.327 125.876C263.327 123.595 264.933 122.686 266.913 123.946L300.014 144.269C301.044 144.954 301.905 145.89 302.526 147C303.147 148.11 303.51 149.361 303.585 150.65Z" fill="#263238"/>
<path d="M241.81 129.768L225.965 120.054C223.594 118.586 221.673 119.766 221.673 122.686V383.947C221.743 385.543 222.168 387.098 222.915 388.485C223.661 389.872 224.706 391.05 225.965 391.923L241.81 401.653V129.768Z" fill="#263238"/>
<g opacity="0.15">
<path d="M362.57 209.161V442.746L231.246 362.172V123.276L358.278 201.265C359.529 202.127 360.57 203.292 361.316 204.665C362.062 206.037 362.492 207.578 362.57 209.161Z" fill="white"/>
</g>
<path d="M232.072 124.807L357.873 202.031C358.991 202.822 359.923 203.877 360.594 205.114C361.266 206.351 361.659 207.736 361.744 209.161V441.231L232.072 361.646V124.807ZM231.246 123.212V362.173L362.57 442.762V209.161C362.503 207.565 362.08 206.008 361.333 204.62C360.587 203.233 359.539 202.055 358.278 201.185L231.246 123.196V123.212Z" fill="white"/>
<path d="M362.585 470.422V450.993L241.81 376.864L222.934 388.429C223.643 389.821 224.676 390.997 225.935 391.843L358.263 473.054C360.649 474.522 362.585 473.341 362.585 470.422Z" fill="#37474F"/>
<path d="M362.585 459.224L322.326 483.933V475.702L362.585 450.993V459.224Z" fill="#285E89"/>
<path opacity="0.2" d="M362.585 459.224L322.326 483.933V475.702L362.585 450.993V459.224Z" fill="black"/>
<path d="M194.845 397.458L322.326 475.702V483.934L194.845 405.689V397.458Z" fill="#285E89"/>
<path opacity="0.2" d="M194.845 397.458L322.326 475.702V483.934L194.845 405.689V397.458Z" fill="black"/>
<path d="M241.81 368.617L194.845 397.458L322.326 475.702L362.585 450.993V442.746L241.81 368.617Z" fill="#285E89"/>
<path d="M241.81 368.617L194.845 397.458L322.326 475.702L362.585 450.993V442.746L241.81 368.617Z" fill="#285E89"/>
<path d="M242.98 303.469C238.989 303.469 235.943 303.724 228.576 315.082C222.334 324.653 201.912 354.675 200.696 356.095C199.481 357.514 209.909 362.571 209.909 362.571L237.489 333.108L242.98 303.469Z" fill="#F3C7A7"/>
<path d="M204.838 353.67C204.838 353.67 207.029 352.426 212.566 352.474C216.002 352.474 218.147 352.729 218.568 351.549C219.123 349.778 220.473 346.524 221.178 346.54V355.202L204.838 353.67Z" fill="#F2B284"/>
<path d="M195.145 483.519C185.917 496.472 178.714 499.471 176.194 502.279C173.673 505.086 175.128 510.622 181.295 511.85C187.462 513.078 194.139 511.579 198.116 507.352C202.092 503.124 204.838 497.621 208.889 494.59C212.941 491.559 215.026 490.698 215.642 487.061C216.257 483.424 213.166 472.608 213.166 472.608L195.145 483.519Z" fill="#263238"/>
<path d="M199.571 463.771C200.426 468.476 201.387 472.592 198.371 478.255C197.392 480.074 196.315 481.832 195.145 483.519C189.758 491.224 185.376 497.238 184.641 498.291C183.906 499.343 188.437 502.693 193.644 500.396C198.851 498.099 203.337 489.9 206.728 484.955C208.229 482.753 209.729 480.759 210.9 479.212C212.485 477.153 213.307 474.549 213.211 471.89L212.926 464.377L199.571 463.771Z" fill="#F3C7A7"/>
<path d="M217.607 501.928C208.379 514.897 201.177 517.88 198.656 520.703C196.135 523.527 197.606 529.03 203.758 530.274C209.91 531.519 216.602 529.987 220.578 525.776C224.554 521.565 227.3 516.029 231.367 513.014C235.433 509.999 237.504 509.106 238.104 505.469C238.704 501.832 235.643 491.017 235.643 491.017L217.607 501.928Z" fill="#263238"/>
<path d="M222.033 482.179C222.904 486.885 223.849 491 220.833 496.663C219.861 498.487 218.784 500.245 217.607 501.927C212.22 509.632 207.839 515.646 207.104 516.699C206.368 517.752 210.9 521.118 216.106 518.821C221.313 516.524 225.8 508.324 229.191 503.379C230.691 501.178 232.192 499.168 233.362 497.636C234.946 495.571 235.768 492.962 235.673 490.298L235.403 482.785L222.033 482.179Z" fill="#F3C7A7"/>
<path d="M282.203 366.958C289.271 382.399 286.48 397.697 267.378 407.715C256.71 413.314 236.063 423.205 236.063 423.205C236.063 423.205 239.064 431.978 239.169 446.766C239.274 459.782 236.018 488.097 236.018 488.097C236.018 488.097 228.035 492.037 222.319 488.097C222.319 488.097 219.783 470.55 217.817 452.859C215.431 430.638 213.421 417.574 214.486 412.788C215.431 408.561 223.744 402.371 230.091 397.634L207.944 408.704C207.944 408.704 212.7 415.691 213.826 428.277C215.191 443.495 213.466 469.657 213.466 469.657C211.348 470.757 209.038 471.379 206.683 471.484C204.328 471.588 201.978 471.172 199.781 470.263C199.781 470.263 184.191 405.737 186.532 396.788C189.893 383.947 235.898 364.39 238.239 359.349L282.203 366.958Z" fill="#285E89"/>
<path opacity="0.2" d="M282.203 366.958C289.271 382.399 286.48 397.697 267.378 407.715C256.71 413.314 236.063 423.205 236.063 423.205C236.063 423.205 239.064 431.978 239.169 446.766C239.274 459.782 236.018 488.097 236.018 488.097C236.018 488.097 228.035 492.037 222.319 488.097C222.319 488.097 219.783 470.55 217.817 452.859C215.431 430.638 213.421 417.574 214.486 412.788C215.431 408.561 223.744 402.371 230.091 397.634L207.944 408.704C207.944 408.704 212.7 415.691 213.826 428.277C215.191 443.495 213.466 469.657 213.466 469.657C211.348 470.757 209.038 471.379 206.683 471.484C204.328 471.588 201.978 471.172 199.781 470.263C199.781 470.263 184.191 405.737 186.532 396.788C189.893 383.947 235.898 364.39 238.239 359.349L282.203 366.958Z" fill="black"/>
<path d="M266.508 303.501C280.913 304.937 283.209 302.48 287.515 314.891L274.311 350.671L282.203 366.958C280.343 369.909 258.346 382.479 239.019 367.485C235.627 354.361 232.922 341.047 230.917 327.605C229.416 316.295 238.839 303.82 243.506 303.326C245.189 303.113 246.883 303.012 248.577 303.023L266.508 303.501Z" fill="#285E89"/>
<path opacity="0.6" d="M266.508 303.501C280.913 304.937 283.209 302.48 287.515 314.891L274.311 350.671L282.203 366.958C280.343 369.909 258.346 382.479 239.019 367.485C235.627 354.361 232.922 341.047 230.917 327.605C229.416 316.295 238.839 303.82 243.506 303.326C245.189 303.113 246.883 303.012 248.577 303.023L266.508 303.501Z" fill="white"/>
<path d="M216.287 353.638C219.288 353.734 219.168 351.692 219.918 349.698C220.803 347.353 221.613 345.263 221.613 345.263L223.594 352.856L226.31 366.926C226.31 366.926 218.342 366.814 212.49 366.926C206.638 367.038 199.991 364.964 199.316 360.545C198.896 357.801 200.817 353.957 206.819 353.351C209.977 353.189 213.142 353.285 216.287 353.638Z" fill="#F3C7A7"/>
<path d="M221.928 335.676C218.927 336.793 219.708 342.137 220.968 348.119C222.228 354.101 224.314 364.15 224.959 366.798C225.605 369.447 226.46 371.09 230.181 371.09C233.902 371.09 239.964 371.52 242.59 371.09C245.216 370.659 245.591 368.186 245.051 362.555C244.418 356.128 243.477 349.738 242.23 343.413C241.18 338.069 240.534 335.23 237.413 335.23C233.782 335.182 225.079 334.512 221.928 335.676Z" fill="#263238"/>
<path d="M221.734 351.836C222.034 353.239 224.735 354.404 227.195 354.516C230.757 354.664 234.323 354.407 237.834 353.75C240.34 353.032 241.93 357.626 239.514 361.822C237.099 366.017 231.637 367.293 224.975 366.91C222.974 364.817 221.65 362.102 221.193 359.158C220.992 356.702 221.175 354.228 221.734 351.836Z" fill="#F3C7A7"/>
<path d="M274.371 350.671C274.371 350.671 272.87 353.319 268.204 353.319C272.33 350.336 275.916 344.434 279.277 337.367L274.371 350.671Z" fill="#285E89"/>
<path opacity="0.1" d="M274.371 350.671C274.371 350.671 272.87 353.319 268.204 353.319C272.33 350.336 275.916 344.434 279.277 337.367L274.371 350.671Z" fill="white"/>
<path d="M280.898 305.113C288.85 306.708 292.166 314.684 292.407 330.317C292.647 345.95 290.756 397.762 290.591 400.059C290.421 401.819 290.693 403.597 291.381 405.208C292.07 406.82 293.148 408.208 294.507 409.231C300.179 413.538 307.021 417 310.367 419.408C314.779 422.599 310.367 427.799 304.951 428.15C299.879 428.485 291.761 423.811 289.691 421.977C290.716 423.424 291.512 425.041 292.046 426.762C292.932 430.431 292.046 432.585 290.456 431.819C289.556 431.388 288.46 429.937 285.354 425.901C279.967 418.866 278.812 415.707 278.752 406.966C278.752 401.048 278.287 370.532 277.837 358.919C277.552 351.804 277.612 336.347 277.732 326.743C277.852 317.14 279.232 306.468 280.898 305.113Z" fill="#F3C7A7"/>
<path d="M231.607 274.437C231.607 274.437 226.55 265.855 230.106 257.608C233.662 249.361 248.202 238.593 264.783 246.25C280.538 253.54 279.142 272.81 279.202 281.536C279.307 289.799 231.607 274.437 231.607 274.437Z" fill="#263238"/>
<path d="M236.228 257.097C238.524 252.311 253.109 244.67 266.973 252.152C280.838 259.633 279.232 279.78 279.232 293.627V319.15C279.232 322.787 271.205 327.796 263.492 324.893L264.047 287.613C264.047 287.613 266.208 264.849 259.546 259.394C252.884 253.938 236.228 257.097 236.228 257.097Z" fill="#263238"/>
<path d="M264.047 277.116C264.948 277.691 266.238 275.84 267.348 274.596C268.459 273.352 272.105 271.677 273.906 275.729C275.706 279.78 271.565 285.38 269.104 287.198C268.416 287.835 267.555 288.222 266.647 288.305C265.738 288.389 264.828 288.163 264.047 287.661L263.807 303.389C263.807 303.389 260.161 311.908 251.428 313.168C242.695 314.428 244.481 306.787 247.347 303.006V297.248C245.163 297.744 242.919 297.862 240.7 297.599C239.559 297.28 236.828 293.786 235.073 289.878C233.107 285.475 229.821 277.675 232.747 264.482C235.883 250.317 250.198 249.886 258.751 255.597C267.303 261.308 264.047 277.116 264.047 277.116Z" fill="#F3C7A7"/>
<path d="M247.362 297.248C247.362 297.248 255.464 295.509 258.285 293.914C259.953 292.996 261.319 291.561 262.202 289.798C261.77 291.535 261.015 293.163 259.981 294.584C257.91 297.391 247.362 299.465 247.362 299.465V297.248Z" fill="#F2B284"/>
<path d="M247.452 276.75C247.464 277.092 247.57 277.422 247.757 277.7C247.945 277.978 248.205 278.191 248.506 278.312C248.806 278.433 249.134 278.458 249.447 278.382C249.761 278.307 250.047 278.135 250.269 277.888C250.491 277.641 250.64 277.329 250.696 276.993C250.753 276.656 250.715 276.309 250.588 275.996C250.46 275.682 250.248 275.415 249.979 275.229C249.709 275.042 249.394 274.944 249.073 274.947C248.854 274.951 248.639 275.001 248.44 275.094C248.24 275.187 248.059 275.322 247.909 275.489C247.758 275.657 247.64 275.855 247.562 276.071C247.483 276.287 247.446 276.518 247.452 276.75Z" fill="#263238"/>
<path d="M249.177 270.226L252.644 272.268C252.889 271.761 252.942 271.174 252.791 270.628C252.64 270.081 252.297 269.617 251.834 269.332C251.605 269.2 251.354 269.119 251.095 269.093C250.836 269.066 250.575 269.096 250.327 269.179C250.079 269.263 249.85 269.398 249.652 269.578C249.455 269.758 249.293 269.978 249.177 270.226Z" fill="#263238"/>
<path d="M266.928 242.931L267.874 249.025C268.651 248.881 269.344 248.416 269.802 247.733C270.26 247.049 270.446 246.201 270.32 245.372C270.253 244.972 270.112 244.59 269.904 244.25C269.697 243.909 269.427 243.616 269.11 243.388C268.794 243.161 268.438 243.003 268.063 242.924C267.688 242.846 267.302 242.848 266.928 242.931Z" fill="#263238"/>
<path d="M273.861 245.946L268.549 248.403C268.876 249.16 269.469 249.751 270.201 250.049C270.933 250.347 271.746 250.329 272.465 249.999C272.812 249.836 273.124 249.6 273.382 249.306C273.641 249.012 273.842 248.666 273.972 248.287C274.102 247.909 274.16 247.507 274.141 247.105C274.121 246.702 274.026 246.308 273.861 245.946Z" fill="#263238"/>
<path d="M248.563 287.406L244.856 288.89C244.935 289.156 245.064 289.402 245.236 289.613C245.407 289.824 245.617 289.996 245.853 290.119C246.088 290.241 246.345 290.311 246.607 290.325C246.869 290.338 247.131 290.295 247.377 290.198C247.875 289.984 248.275 289.574 248.496 289.054C248.717 288.534 248.741 287.944 248.563 287.406Z" fill="#F2B284"/>
<path d="M232.987 271.678L236.153 269.077C236.003 268.85 235.811 268.658 235.589 268.512C235.368 268.366 235.12 268.27 234.862 268.228C234.605 268.186 234.341 268.2 234.089 268.27C233.836 268.339 233.599 268.461 233.392 268.63C232.97 268.986 232.693 269.501 232.617 270.068C232.542 270.635 232.674 271.211 232.987 271.678Z" fill="#263238"/>
<path d="M233.963 276.255C233.977 276.592 234.085 276.917 234.272 277.19C234.458 277.463 234.716 277.671 235.013 277.789C235.311 277.908 235.634 277.931 235.943 277.855C236.252 277.78 236.534 277.61 236.753 277.366C236.972 277.122 237.119 276.815 237.176 276.483C237.233 276.152 237.197 275.809 237.072 275.499C236.948 275.189 236.74 274.924 236.475 274.738C236.211 274.552 235.901 274.453 235.583 274.452C235.144 274.465 234.727 274.661 234.424 274.999C234.12 275.337 233.955 275.788 233.963 276.255Z" fill="#263238"/>
<path d="M240.715 275.473L242.036 285.763L236.693 284.965L240.715 275.473Z" fill="#F2B284"/>
<path d="M236.153 255.566C236.153 255.566 243.491 272.267 265.353 269.922C265.353 269.922 267.874 258.277 259.246 253.779C250.618 249.28 240.295 249.025 236.153 255.566Z" fill="#263238"/>
<path d="M258.735 267.833C261.301 268.184 262.052 272.347 261.421 275.809C260.791 279.27 263.882 279.557 266.298 275.809C267.852 272.936 268.732 269.708 268.864 266.397L258.735 267.833Z" fill="#263238"/>
<path d="M230.151 397.682C230.151 397.682 243.476 388.111 247.362 386.212C247.362 386.212 239.859 384.617 236.228 379.385C236.839 381.862 237.91 384.184 239.379 386.212L208.004 408.753L230.151 397.682Z" fill="#285E89"/>
<path opacity="0.4" d="M230.151 397.682C230.151 397.682 243.476 388.111 247.362 386.212C247.362 386.212 239.859 384.617 236.228 379.385C236.839 381.862 237.91 384.184 239.379 386.212L208.004 408.753L230.151 397.682Z" fill="black"/>
<path d="M539.448 254.799L447.377 198.297C445.007 196.846 443.086 198.01 443.086 200.93V338.643C443.157 340.238 443.583 341.793 444.329 343.18C445.075 344.566 446.12 345.745 447.377 346.619L539.448 403.121C541.818 404.572 543.739 403.392 543.739 400.489V262.696C543.658 261.113 543.227 259.574 542.481 258.202C541.735 256.83 540.696 255.664 539.448 254.799Z" fill="#E0E0E0"/>
<path d="M420.549 313.599L449.793 331.561V306.851L421.179 310.36C418.463 310.695 418.178 312.147 420.549 313.599Z" fill="#E0E0E0"/>
<path d="M460.087 226.676L526.738 267.593C527.768 268.278 528.629 269.214 529.25 270.324C529.871 271.433 530.234 272.685 530.31 273.973C530.31 276.239 528.719 277.164 526.738 275.888L460.087 234.987C459.059 234.3 458.199 233.363 457.578 232.254C456.957 231.144 456.593 229.894 456.515 228.606C456.56 226.325 458.061 225.464 460.087 226.676Z" fill="#F0F0F0"/>
<path d="M460.056 251.37L526.708 292.287C527.739 292.972 528.602 293.908 529.225 295.017C529.849 296.127 530.215 297.378 530.295 298.668C530.295 300.933 528.689 301.858 526.708 300.582L460.056 259.681C459.031 258.991 458.173 258.054 457.553 256.945C456.932 255.836 456.566 254.587 456.485 253.3C456.56 251.019 458.061 250.158 460.056 251.37Z" fill="#F0F0F0"/>
<path d="M460.087 276.031L526.738 316.948C527.758 317.625 528.613 318.549 529.234 319.644C529.854 320.739 530.223 321.974 530.31 323.249C530.31 325.53 528.719 326.44 526.738 325.179L460.087 284.326C459.067 283.649 458.212 282.725 457.591 281.63C456.971 280.536 456.602 279.3 456.515 278.025C456.56 275.744 458.061 274.883 460.087 276.031Z" fill="#F0F0F0"/>
<path d="M460.087 300.805L526.738 341.706C527.766 342.393 528.626 343.33 529.247 344.439C529.868 345.548 530.232 346.798 530.31 348.087C530.31 350.368 528.719 351.277 526.738 350.017L460.087 309.1C459.057 308.415 458.196 307.479 457.575 306.369C456.954 305.259 456.59 304.008 456.515 302.719C456.56 300.454 458.061 299.593 460.087 300.805Z" fill="#F0F0F0"/>
<path d="M460.087 325.483L526.738 366.399C527.768 367.085 528.629 368.021 529.25 369.131C529.871 370.24 530.234 371.491 530.31 372.78C530.31 375.045 528.719 375.971 526.738 374.695L460.087 333.794C459.059 333.107 458.199 332.17 457.578 331.061C456.957 329.951 456.593 328.701 456.515 327.413C456.56 325.164 458.061 324.302 460.087 325.483Z" fill="#F0F0F0"/>
<path d="M449.793 89.7287V153.313C449.867 154.908 450.295 156.461 451.041 157.847C451.786 159.233 452.829 160.413 454.084 161.289L526.018 205.428C528.389 206.896 530.309 205.715 530.309 202.796V139.148C530.238 137.552 529.813 135.997 529.067 134.611C528.32 133.224 527.276 132.046 526.018 131.172L454.084 87.0328C451.729 85.645 449.793 86.8095 449.793 89.7287Z" fill="#F0F0F0"/>
<path d="M428.606 118.107L456.56 121.537V146.246L427.391 121.297C427.072 121.075 426.835 120.741 426.721 120.353C426.607 119.966 426.624 119.548 426.767 119.172C426.91 118.796 427.172 118.484 427.507 118.29C427.843 118.095 428.231 118.031 428.606 118.107Z" fill="#F0F0F0"/>
<path d="M530.31 121.521C533.241 123.551 535.681 126.288 537.43 129.508C539.179 132.729 540.189 136.343 540.378 140.057C540.378 146.885 535.876 149.628 530.31 146.231C527.378 144.197 524.938 141.458 523.189 138.234C521.44 135.011 520.43 131.395 520.241 127.679C520.241 120.883 524.758 118.107 530.31 121.521Z" fill="#285E89"/>
<path opacity="0.7" d="M530.31 121.521C533.241 123.551 535.681 126.288 537.43 129.508C539.179 132.729 540.189 136.343 540.378 140.057C540.378 146.885 535.876 149.628 530.31 146.231C527.378 144.197 524.938 141.458 523.189 138.234C521.44 135.011 520.43 131.395 520.241 127.679C520.241 120.883 524.758 118.107 530.31 121.521Z" fill="white"/>
<path d="M466.794 107.85L513.309 136.404C514.336 137.092 515.195 138.029 515.816 139.138C516.437 140.247 516.801 141.497 516.88 142.785C516.88 145.05 515.275 145.975 513.309 144.699L466.794 116.145C465.767 115.457 464.907 114.52 464.287 113.411C463.666 112.302 463.301 111.052 463.222 109.764C463.222 107.499 464.828 106.638 466.794 107.85Z" fill="#E6E6E6"/>
<path d="M466.794 127.838L513.309 156.392C514.336 157.08 515.195 158.017 515.816 159.126C516.437 160.235 516.801 161.485 516.88 162.772C516.88 165.038 515.275 165.963 513.309 164.687L466.794 136.133C465.767 135.445 464.907 134.508 464.287 133.399C463.666 132.29 463.301 131.04 463.222 129.752C463.222 127.487 464.828 126.625 466.794 127.838Z" fill="#E6E6E6"/>
<path d="M466.794 147.826L513.309 176.38C514.336 177.068 515.195 178.005 515.816 179.114C516.437 180.223 516.801 181.473 516.88 182.761C516.88 185.026 515.275 185.951 513.309 184.675L466.794 156.121C465.767 155.433 464.907 154.496 464.287 153.387C463.666 152.278 463.301 151.028 463.222 149.74C463.222 147.475 464.828 146.614 466.794 147.826Z" fill="#E6E6E6"/>
<path d="M163.709 172.344L71.6542 115.842C69.2834 114.39 67.3628 115.571 67.3628 118.474V256.251C67.4325 257.847 67.858 259.402 68.6041 260.789C69.3502 262.176 70.3956 263.354 71.6542 264.227L163.709 320.697C166.08 322.148 168.001 320.968 168.001 318.065V180.32C167.931 178.724 167.506 177.168 166.76 175.782C166.013 174.395 164.968 173.216 163.709 172.344Z" fill="#E0E0E0"/>
<path d="M84.3482 144.3L151 185.201C152.031 185.886 152.893 186.822 153.517 187.931C154.141 189.041 154.507 190.292 154.586 191.582C154.586 193.863 152.981 194.772 151 193.512L84.3482 152.595C83.321 151.907 82.4619 150.97 81.8411 149.861C81.2204 148.752 80.8557 147.502 80.777 146.214C80.777 143.949 82.3825 143.088 84.3482 144.3Z" fill="#F0F0F0"/>
<path d="M84.3334 168.994L150.985 209.895C152.012 210.583 152.872 211.52 153.492 212.629C154.113 213.738 154.478 214.988 154.556 216.276C154.556 218.557 152.951 219.466 150.985 218.19L84.3334 177.289C83.3037 176.604 82.4426 175.668 81.8216 174.558C81.2005 173.448 80.8373 172.197 80.7622 170.908C80.7622 168.643 82.3527 167.782 84.3334 168.994Z" fill="#F0F0F0"/>
<path d="M84.3482 193.704L151 234.557C152.031 235.242 152.893 236.178 153.517 237.287C154.141 238.397 154.507 239.648 154.586 240.938C154.586 243.203 152.981 244.128 151 242.852L84.3482 201.951C83.3227 201.261 82.4648 200.324 81.8443 199.215C81.2237 198.106 80.8581 196.857 80.777 195.57C80.777 193.353 82.3825 192.491 84.3482 193.704Z" fill="#F0F0F0"/>
<path d="M84.3482 218.413L151 259.33C152.022 260.006 152.879 260.929 153.502 262.024C154.125 263.119 154.497 264.355 154.586 265.631C154.586 267.912 152.981 268.821 151 267.561L84.3482 226.58C83.3308 225.9 82.4777 224.976 81.8575 223.882C81.2373 222.787 80.8672 221.553 80.777 220.279C80.777 218.062 82.3825 217.201 84.3482 218.413Z" fill="#F0F0F0"/>
<path d="M84.3482 243.139L151 284.008C152.031 284.693 152.893 285.629 153.517 286.738C154.141 287.848 154.507 289.099 154.586 290.388C154.586 292.654 152.981 293.579 151 292.303L84.3482 251.402C83.321 250.714 82.4619 249.777 81.8411 248.668C81.2204 247.559 80.8557 246.309 80.777 245.021C80.777 242.788 82.3825 241.926 84.3482 243.139Z" fill="#F0F0F0"/>
<path d="M161.294 302.719L187.477 318.783C187.805 318.977 188.186 319.046 188.556 318.977C188.926 318.908 189.262 318.706 189.508 318.405C189.755 318.104 189.896 317.722 189.909 317.323C189.921 316.924 189.805 316.533 189.578 316.214L161.294 278.01V302.719Z" fill="#E0E0E0"/>
<path d="M0.260742 299.768V363.353C0.331658 364.948 0.757611 366.503 1.50362 367.89C2.24964 369.276 3.29442 370.455 4.55215 371.329L76.4857 415.468C78.8565 416.92 80.7771 415.755 80.7771 412.836V349.188C80.7062 347.592 80.2803 346.037 79.5343 344.651C78.7882 343.264 77.7435 342.085 76.4857 341.212L4.55215 297.136C2.18137 295.669 0.260742 296.849 0.260742 299.768Z" fill="#F0F0F0"/>
<path d="M102.849 396.294L74.0698 364.501V389.291L101.079 399.261C101.446 399.445 101.863 399.48 102.253 399.359C102.643 399.239 102.978 398.972 103.195 398.607C103.413 398.243 103.497 397.807 103.434 397.381C103.37 396.955 103.162 396.568 102.849 396.294Z" fill="#F0F0F0"/>
<path d="M80.777 331.56C83.7085 333.59 86.1481 336.327 87.8975 339.548C89.647 342.769 90.657 346.383 90.8454 350.097C90.8454 356.908 86.3439 359.668 80.777 356.27C77.8473 354.238 75.409 351.501 73.6597 348.281C71.9105 345.06 70.8995 341.447 70.7087 337.734C70.7087 330.906 75.2252 328.147 80.777 331.56Z" fill="#285E89"/>
<path opacity="0.7" d="M80.777 331.56C83.7085 333.59 86.1481 336.327 87.8975 339.548C89.647 342.769 90.657 346.383 90.8454 350.097C90.8454 356.908 86.3439 359.668 80.777 356.27C77.8473 354.238 75.409 351.501 73.6597 348.281C71.9105 345.06 70.8995 341.447 70.7087 337.734C70.7087 330.906 75.2252 328.147 80.777 331.56Z" fill="white"/>
<path d="M17.2612 317.889L63.7765 346.443C64.8036 347.131 65.6628 348.068 66.2835 349.177C66.9043 350.287 67.2689 351.536 67.3477 352.824C67.3477 355.089 65.7421 356.015 63.7615 354.738L17.2462 326.184C16.2166 325.499 15.3555 324.563 14.7344 323.453C14.1133 322.344 13.7501 321.093 13.675 319.804C13.6901 317.507 15.2806 316.677 17.2612 317.889Z" fill="#E6E6E6"/>
<path d="M17.2612 337.877L63.7765 366.431C64.8036 367.119 65.6628 368.056 66.2835 369.165C66.9043 370.274 67.2689 371.524 67.3477 372.812C67.3477 375.077 65.7421 376.002 63.7615 374.726L17.2462 346.172C16.2166 345.487 15.3555 344.551 14.7344 343.441C14.1133 342.332 13.7501 341.08 13.675 339.791C13.6901 337.526 15.2806 336.649 17.2612 337.877Z" fill="#E6E6E6"/>
<path d="M17.2612 357.865L63.7765 386.419C64.8036 387.107 65.6628 388.044 66.2835 389.153C66.9043 390.262 67.2689 391.512 67.3477 392.8C67.3477 395.065 65.7421 395.99 63.7615 394.714L17.2462 366.16C16.2166 365.475 15.3555 364.539 14.7344 363.429C14.1133 362.319 13.7501 361.068 13.675 359.779C13.6901 357.514 15.2806 356.653 17.2612 357.865Z" fill="#E6E6E6"/>
<path d="M53.9333 3.2531V66.8376C54.0031 68.4335 54.4285 69.9889 55.1746 71.3756C55.9208 72.7623 56.9662 73.9407 58.2248 74.8136L130.158 118.969C132.529 120.42 134.45 119.24 134.45 116.321V52.7042C134.38 51.1083 133.955 49.5529 133.208 48.1662C132.462 46.7795 131.417 45.6011 130.158 44.7282L58.2248 0.621021C55.929 -0.830608 53.9333 0.34984 53.9333 3.2531Z" fill="#F0F0F0"/>
<path d="M156.462 99.794L127.682 67.9858V92.6954L154.691 102.665C155.044 102.811 155.433 102.824 155.793 102.702C156.154 102.579 156.464 102.329 156.671 101.993C156.878 101.656 156.971 101.254 156.933 100.854C156.895 100.454 156.728 100.079 156.462 99.794Z" fill="#F0F0F0"/>
<path d="M134.45 35.0454C137.37 37.0824 139.798 39.822 141.537 43.0424C143.276 46.2628 144.276 49.8733 144.458 53.5815C144.458 60.409 139.957 63.1527 134.39 59.7549C131.46 57.7232 129.022 54.9862 127.272 51.7657C125.523 48.5453 124.512 44.932 124.321 41.2188C124.381 34.4073 128.898 31.6316 134.45 35.0454Z" fill="#285E89"/>
<path opacity="0.7" d="M134.45 35.0454C137.37 37.0824 139.798 39.822 141.537 43.0424C143.276 46.2628 144.276 49.8733 144.458 53.5815C144.458 60.409 139.957 63.1527 134.39 59.7549C131.46 57.7232 129.022 54.9862 127.272 51.7657C125.523 48.5453 124.512 44.932 124.321 41.2188C124.381 34.4073 128.898 31.6316 134.45 35.0454Z" fill="white"/>
<path d="M70.934 21.3743L117.449 49.9283C118.476 50.6163 119.335 51.5532 119.956 52.6624C120.577 53.7715 120.942 55.0212 121.02 56.3091C121.02 58.5743 119.415 59.4995 117.449 58.2234L70.934 29.6693C69.9043 28.9843 69.0432 28.0481 68.4221 26.9383C67.8011 25.8286 67.4379 24.5774 67.3628 23.2886C67.3628 21.0234 68.9533 20.162 70.934 21.3743Z" fill="#E6E6E6"/>
<path d="M70.934 41.3621L117.449 69.9161C118.476 70.6041 119.335 71.541 119.956 72.6502C120.577 73.7593 120.942 75.009 121.02 76.2969C121.02 78.5621 119.415 79.4873 117.449 78.2111L70.934 49.6571C69.9043 48.9721 69.0432 48.0358 68.4221 46.9261C67.8011 45.8164 67.4379 44.5652 67.3628 43.2763C67.3628 41.0112 68.9533 40.1498 70.934 41.3621Z" fill="#E6E6E6"/>
<path d="M70.934 61.3501L117.449 89.9042C118.476 90.5921 119.335 91.5291 119.956 92.6382C120.577 93.7473 120.942 94.9971 121.02 96.285C121.02 98.5501 119.415 99.4753 117.449 98.1992L70.934 69.6452C69.9043 68.9601 69.0432 68.0239 68.4221 66.9142C67.8011 65.8044 67.4379 64.5532 67.3628 63.2644C67.3628 60.9992 68.9533 60.1378 70.934 61.3501Z" fill="#E6E6E6"/>
</svg>
