<svg width="72" height="72" viewBox="0 0 72 72" fill="none" xmlns="http://www.w3.org/2000/svg">
<path d="M60.75 0H11.25C5.0368 0 0 5.0368 0 11.25V60.75C0 66.9632 5.0368 72 11.25 72H60.75C66.9632 72 72 66.9632 72 60.75V11.25C72 5.0368 66.9632 0 60.75 0Z" fill="#1877F2"/>
<path d="M54 36C54 26.1 45.9 18 36 18C26.1 18 18 26.1 18 36C18 45 24.525 52.425 33.075 53.775V41.175H28.575V36H33.075V31.95C33.075 27.45 35.775 24.975 39.825 24.975C41.85 24.975 43.875 25.425 43.875 25.425V29.925H41.625C39.375 29.925 38.7 31.275 38.7 32.625V36H43.65L42.75 41.175H38.475V54C47.475 52.65 54 45 54 36Z" fill="white"/>
</svg>
