<svg width="547" height="547" viewBox="0 0 547 547" fill="none" xmlns="http://www.w3.org/2000/svg">
<path d="M460.832 304.797C460.832 336.193 453.007 365.76 439.185 391.629C427.805 412.936 412.38 431.777 393.916 447.066C388.37 451.667 382.558 455.942 376.498 459.865C376.108 460.133 375.738 460.38 375.328 460.606C346.716 478.873 312.725 489.474 276.245 489.474C240.179 489.474 206.536 479.119 178.109 461.2C177.925 461.118 177.74 460.996 177.556 460.872C177.33 460.728 177.102 460.586 176.876 460.442C176.014 459.907 175.154 459.333 174.331 458.778C170.286 456.106 166.361 453.27 162.539 450.27C162.027 449.88 161.513 449.468 160.999 449.057C157.57 446.326 154.265 443.469 151.04 440.447C143.789 433.791 137.071 426.517 130.971 418.732C124.769 410.82 119.205 402.416 114.338 393.54C114.11 393.17 113.905 392.759 113.699 392.369C108.874 383.451 104.784 374.08 101.457 364.341C99.9168 359.842 98.5624 355.261 97.392 350.597C96.3637 346.61 95.4794 342.604 94.7411 338.535C93.5887 332.33 92.7505 326.02 92.2563 319.609C91.8462 314.742 91.6621 309.788 91.6621 304.797C91.6621 242.498 122.488 187.389 169.73 153.981C173.097 151.575 176.55 149.296 180.083 147.138C180.247 147.014 180.409 146.912 180.593 146.83C184.805 144.262 189.12 141.879 193.536 139.659C193.906 139.473 194.276 139.289 194.666 139.105C198.937 136.987 203.353 135.014 207.808 133.248H207.83C211.424 131.789 215.059 130.474 218.776 129.262C229.97 125.585 241.678 122.955 253.714 121.496C254.742 121.372 255.748 121.248 256.755 121.146C260.902 120.693 265.113 120.405 269.365 120.261C271.645 120.159 273.944 120.119 276.245 120.119C277.313 120.119 278.362 120.139 279.408 120.159H280.106C286.556 120.303 292.926 120.755 299.191 121.536C302.702 121.966 306.213 122.501 309.644 123.159C395.64 138.856 460.832 214.224 460.832 304.797Z" fill="#285E89"/>
<path d="M393.916 447.066C388.372 451.667 382.992 458.78 376.934 462.703C376.542 462.969 376.296 465.101 375.884 465.327C347.274 483.594 311.679 492.082 275.199 492.082C239.133 492.082 206.536 479.119 178.109 461.2C177.924 461.118 177.74 460.996 177.554 460.872C177.328 460.728 177.102 460.586 176.878 460.442C176.014 459.907 175.152 459.333 174.331 458.778C170.284 456.106 166.361 453.27 162.541 450.27C162.027 449.88 161.513 449.468 161.001 449.057C157.57 446.325 154.263 443.469 151.04 440.447L143.049 299.721C179.403 254.251 227.219 236.332 227.219 236.332L299.312 239.744C299.312 239.744 375.882 285.03 383.584 305.331C388.554 318.438 392.067 394.773 393.916 447.066Z" fill="white"/>
<path d="M208.057 96.8584C204.998 109.121 207.195 122.062 210.286 134.319C213.377 146.576 217.374 158.753 217.929 171.382C218.189 177.344 217.711 183.534 219.933 189.072C222.736 196.051 229.464 200.808 236.563 203.282C238.369 199.7 238.681 195.571 238.689 191.558C238.725 174.526 237.963 157.333 233.622 140.866C229.28 124.398 220.906 108.03 208.057 96.8584Z" fill="#323232"/>
<path d="M300.112 209.579L300.05 211.818L299.538 231.298L299.312 239.744C299.312 239.744 293.025 252.605 268.111 254.947C243.219 257.311 227.218 236.332 227.218 236.332C227.218 236.332 229.827 222.174 230.093 209.313C230.361 196.469 225.903 181.779 225.903 181.779L300.112 209.579Z" fill="#F3C7A7"/>
<path d="M300.052 211.818L299.538 231.298C288.61 234.977 276.266 234.32 265.666 229.675C253.324 224.271 243.445 213.73 238.247 201.277C259.258 204.935 279.923 205.326 300.052 211.818Z" fill="#F2B284"/>
<path d="M313.876 216.64C284.585 235.037 239.787 226.401 228.695 188.139C223.896 171.546 221.104 158.452 219.483 148.962C218.535 143.43 218.008 139.115 217.682 136.044C216.81 131.883 216.309 127.594 216.301 123.201C216.252 89.9735 242.612 63.0023 275.174 62.9503C288.558 62.9303 300.886 67.4535 310.794 75.1049C319.31 81.6796 326.026 90.584 330.012 100.733C334.579 112.365 334.185 124.564 334.317 136.841C334.419 146.029 334.466 155.172 333.754 164.349C332.509 180.47 330.174 201.017 318.328 213.023C316.978 214.392 315.498 215.621 313.876 216.64Z" fill="#F3C7A7"/>
<path d="M207.405 142.039C202.638 142.381 198.276 145.427 195.815 149.526C193.357 153.625 192.686 158.651 193.413 163.378C195.057 174.076 204.194 183.182 214.894 184.789C217.593 185.193 220.46 185.139 222.904 183.923C226.177 182.295 228.208 178.767 228.816 175.158C229.422 171.552 228.788 167.849 227.89 164.303C225.337 154.221 220.347 141.106 207.405 142.039Z" fill="#F3C7A7"/>
<path d="M216.326 169.07C216.374 169.056 216.424 169.036 216.47 169.01C216.786 168.834 216.902 168.436 216.726 168.117C215.402 165.728 214.031 163.26 212.247 161.082C210.202 158.591 207.915 156.879 205.451 156.003C205.11 155.883 204.734 156.063 204.612 156.403C204.49 156.745 204.67 157.117 205.01 157.24C207.247 158.034 209.34 159.609 211.231 161.915C212.939 163.998 214.282 166.416 215.576 168.756C215.728 169.026 216.04 169.15 216.326 169.07Z" fill="#323232"/>
<path d="M301.126 144.43C303.697 154.381 305.888 164.851 304.035 174.884C303.791 176.205 302.419 176.981 301.186 176.449C299.672 175.791 298.127 175.11 296.667 174.506" stroke="#323232" stroke-width="1.026" stroke-linecap="round" stroke-linejoin="round"/>
<path d="M277.258 149.552C277.258 152.258 275.356 154.451 273.011 154.451C270.668 154.451 268.767 152.258 268.767 149.552C268.767 146.846 270.668 144.652 273.011 144.652C275.356 144.652 277.258 146.846 277.258 149.552Z" fill="#323232"/>
<path d="M320.237 150.272C319.778 152.939 317.533 154.778 315.224 154.381C312.913 153.983 311.41 151.498 311.869 148.832C312.328 146.165 314.575 144.326 316.886 144.724C319.195 145.121 320.696 147.606 320.237 150.272Z" fill="#323232"/>
<path d="M289.726 178.809C290.297 181.404 292.039 183.82 294.52 184.77C296.999 185.721 300.158 184.921 301.562 182.665" stroke="#323232" stroke-width="1.026" stroke-linecap="round" stroke-linejoin="round"/>
<path d="M265.496 130.516C264.128 131.623 262.759 132.82 261.985 134.399C261.209 135.98 261.163 138.042 262.319 139.369C263.268 140.457 264.784 140.838 266.215 141.012C269.644 141.43 273.171 141 276.4 139.773C278.427 139.004 280.533 137.671 280.973 135.548C281.378 133.605 280.209 131.643 278.693 130.366C274.787 127.074 269.33 127.418 265.496 130.516Z" fill="#323232"/>
<path d="M316.641 128.266C314.904 128.553 313.125 128.92 311.67 129.912C310.219 130.903 309.162 132.676 309.514 134.401C309.801 135.813 310.935 136.893 312.092 137.75C314.869 139.807 318.15 141.174 321.564 141.699C323.705 142.029 326.196 141.908 327.625 140.277C328.935 138.786 328.886 136.502 328.196 134.643C326.421 129.85 321.502 127.46 316.641 128.266Z" fill="#323232"/>
<path d="M220.097 144.735C221.868 148.001 223.639 151.269 225.409 154.536C229.058 153.016 231.873 149.952 234.278 146.762C245.31 132.114 249.941 112.161 244.788 94.4447C242.915 88.0101 239.65 81.7477 234.344 77.7928C228.51 78.069 223.22 79.6141 218.373 82.9425C215.956 84.6017 213.721 86.6492 212.297 89.245C211.096 91.4366 210.52 93.9243 210.134 96.4061C207.591 112.784 212.233 130.228 220.097 144.735Z" fill="#323232"/>
<path d="M237.313 87.2616C249.489 106.828 272.943 118.776 295.92 117.121C294.72 114.351 293.336 111.145 292.135 108.375C304.387 120.021 320.971 130.292 336.028 137.97C336.142 138.028 338.557 129.392 338.759 128.403C339.495 124.796 339.977 121.148 340.167 117.471C341.023 100.825 336.072 84.5557 325.122 71.8746C321.033 67.1373 316.253 62.9923 310.957 59.6539C294.904 49.5307 274.701 46.7307 256.163 50.7896C247.651 52.6529 239.34 55.9553 232.496 61.3531C225.653 66.747 220.364 74.3624 218.719 82.9245C224.001 83.663 232.089 86.1828 237.313 87.2616Z" fill="#323232"/>
<path d="M89.1772 402.182C89.1772 402.182 76.403 485.147 97.9901 496.515C119.575 507.881 189.586 476.567 189.586 476.567C189.586 476.567 237.068 476.897 241.397 473.659C245.727 470.419 246.533 463.364 246.533 463.364C246.533 463.364 254.144 459.031 253.409 451.127C253.409 451.127 261.942 445.603 260.884 439.26L266.348 428.455L189.35 423.529L151.32 429.616L154.067 406.887L89.1772 402.182Z" fill="#F3C7A7"/>
<path d="M222.481 441.484C222.481 441.484 242.76 443.189 254.274 441.396C258.029 440.811 262.008 437.971 263.855 434.651L266.31 430.236" stroke="#323232" stroke-width="1.026" stroke-linecap="round" stroke-linejoin="round"/>
<path d="M223.371 452.066C228.937 452.314 234.841 452.568 240.411 452.486C249.53 452.352 259.221 451.273 261.104 438.134" stroke="#323232" stroke-width="1.026" stroke-linecap="round" stroke-linejoin="round"/>
<path d="M223.213 462.557C223.213 462.557 241.341 465.255 246.429 462.703C251.517 460.151 254.092 454.872 253.341 450.643" stroke="#323232" stroke-width="1.026" stroke-linecap="round" stroke-linejoin="round"/>
<path d="M180.359 425.269C180.359 425.269 239.469 397.451 240.861 401.968C242.256 406.487 216.943 429.099 216.943 429.099L180.359 425.269Z" fill="#F3C7A7"/>
<path d="M121.004 433.035L182.904 425.018" stroke="#323232" stroke-width="1.026" stroke-linecap="round" stroke-linejoin="round"/>
<path d="M153.061 407.696C152.728 415.98 137.691 422.102 119.473 421.372C101.257 420.641 86.7587 413.332 87.0908 405.05C87.4229 396.766 102.46 390.644 120.678 391.376C138.894 392.107 153.393 399.412 153.061 407.696Z" fill="#F3C7A7"/>
<path d="M159.828 350.437L152.226 428.345" stroke="#323232" stroke-width="1.026" stroke-linecap="round" stroke-linejoin="round"/>
<path d="M152.836 288.533C152.836 288.533 96.9017 336.099 78.0215 416.538L174.249 420.735L152.836 288.533Z" fill="#F8F8F8"/>
<path d="M244.33 426.339L201.518 419.691H431.996L460.26 426.339C460.26 426.339 244.02 426.029 244.33 426.339Z" fill="#B7B8FA"/>
<path d="M244.33 426.339L201.518 419.688H431.996L460.26 426.339C460.26 426.339 244.02 426.028 244.33 426.339Z" fill="#323232"/>
<path d="M504.89 292.74L460.258 426.339H244.332L284.278 292.74H504.89Z" fill="#323232"/>
<path d="M394.764 361.457C394.764 370.437 387.484 377.721 378.505 377.721C369.528 377.721 362.249 370.437 362.249 361.457C362.249 352.477 369.528 345.193 378.505 345.193C387.484 345.193 394.764 352.477 394.764 361.457Z" fill="#F9F0E3"/>
<path d="M434.515 168.926C434.515 192.879 415.105 212.297 391.161 212.297C367.217 212.297 347.807 192.879 347.807 168.926C347.807 144.973 367.217 125.555 391.161 125.555C415.105 125.555 434.515 144.973 434.515 168.926Z" fill="#FFC35B"/>
<path d="M431.162 168.926C431.162 191.025 413.252 208.942 391.161 208.942C369.07 208.942 351.16 191.025 351.16 168.926C351.16 146.826 369.07 128.909 391.161 128.909C413.252 128.909 431.162 146.826 431.162 168.926Z" stroke="#F9F0E3" stroke-width="0.468" stroke-miterlimit="10"/>
<path d="M382.798 170.253C383.948 170.253 384.839 171.027 384.839 172.198C384.839 172.803 384.743 173.313 384.649 173.803C384.553 174.276 384.459 174.71 384.459 175.126C384.459 177.318 387.236 178.072 389.578 178.072C392.239 178.072 394.996 177.072 394.996 173.879C394.996 170.613 391.691 169.214 389.008 168.137C385.515 166.72 381.496 164.927 381.496 159.355C381.496 155.652 384.611 153.197 387.972 152.384V150.723C387.972 149.116 388.256 148.003 390.01 148.003C391.181 148.003 391.975 148.343 391.975 149.646C391.975 150.325 391.975 151.345 391.955 152.234C394.882 152.686 398.583 154.329 398.583 157.748C398.583 159.127 397.619 159.883 396.543 159.883C395.524 159.883 394.372 159.053 394.278 157.918C393.522 156.389 391.691 156.201 390.105 156.201C388.426 156.201 385.725 157.258 385.725 159.487C385.725 162.225 388.502 163.528 391.369 164.851C394.958 166.458 399.226 168.572 399.226 173.861C399.226 178.639 395.58 181.303 391.615 181.981V184.325C391.615 185.95 391.313 187.083 389.578 187.083C388.368 187.083 387.576 186.723 387.576 185.422C387.576 184.645 387.576 183.19 387.612 182.021C383.78 181.473 380.249 179.281 380.249 175.144C380.249 172.897 380.267 170.253 382.798 170.253Z" fill="white"/>
<path d="M193.812 193.581C193.812 217.534 174.401 236.952 150.458 236.952C126.514 236.952 107.103 217.534 107.103 193.581C107.103 169.628 126.514 150.21 150.458 150.21C174.401 150.21 193.812 169.628 193.812 193.581Z" fill="#FFC35B"/>
<path d="M190.458 193.581C190.458 215.681 172.549 233.598 150.457 233.598C128.366 233.598 110.456 215.681 110.456 193.581C110.456 171.482 128.366 153.565 150.457 153.565C172.549 153.565 190.458 171.482 190.458 193.581Z" stroke="#F9F0E3" stroke-width="0.468" stroke-miterlimit="10"/>
<path d="M142.095 194.908C143.247 194.908 144.135 195.683 144.135 196.856C144.135 197.458 144.039 197.968 143.945 198.459C143.849 198.931 143.757 199.367 143.757 199.782C143.757 201.973 146.532 202.728 148.875 202.728C151.536 202.728 154.293 201.727 154.293 198.535C154.293 195.268 150.988 193.869 148.305 192.793C144.814 191.376 140.792 189.582 140.792 184.01C140.792 180.308 143.907 177.852 147.268 177.039V175.378C147.268 173.771 147.552 172.658 149.307 172.658C150.477 172.658 151.272 172.999 151.272 174.301C151.272 174.98 151.272 176.001 151.252 176.889C154.179 177.344 157.88 178.985 157.88 182.403C157.88 183.782 156.916 184.539 155.841 184.539C154.821 184.539 153.668 183.708 153.574 182.573C152.818 181.044 150.988 180.856 149.401 180.856C147.722 180.856 145.022 181.913 145.022 184.143C145.022 186.88 147.796 188.185 150.667 189.506C154.255 191.113 158.52 193.227 158.52 198.517C158.52 203.294 154.877 205.958 150.914 206.637V208.98C150.914 210.605 150.609 211.738 148.875 211.738C147.664 211.738 146.87 211.378 146.87 210.077C146.87 209.3 146.87 207.847 146.91 206.677C143.077 206.128 139.546 203.937 139.546 199.802C139.546 197.552 139.564 194.908 142.095 194.908Z" fill="white"/>
<path d="M448.516 279.091H325.803C315.566 279.091 307.187 270.711 307.187 260.468C307.187 250.225 315.566 241.845 325.803 241.845H448.516C458.755 241.845 467.132 250.225 467.132 260.468C467.132 270.711 458.755 279.091 448.516 279.091Z" fill="#B7B8FA"/>
<path d="M353.86 246.826V275.156" stroke="#F9F0E3" stroke-width="1.026" stroke-linecap="round" stroke-linejoin="round"/>
<path d="M337.955 256.359C337.955 261.237 334 265.189 329.124 265.189C324.249 265.189 320.297 261.237 320.297 256.359C320.297 251.482 324.249 247.525 329.124 247.525C334 247.525 337.955 251.482 337.955 256.359Z" stroke="#F9F0E3" stroke-width="1.026" stroke-linecap="round" stroke-linejoin="round"/>
<path d="M334.456 263.962L339.878 271.135" stroke="#F9F0E3" stroke-width="1.026" stroke-linecap="round" stroke-linejoin="round"/>
<path d="M126.864 273.742C126.864 296.909 108.089 315.69 84.9318 315.69C61.7742 315.69 43 296.909 43 273.742C43 250.576 61.7742 231.799 84.9318 231.799C108.089 231.799 126.864 250.576 126.864 273.742Z" fill="#F3C7A7"/>
<path d="M84.3236 265.166C84.3236 265.166 71.2273 249.307 63.1867 260.339C55.146 271.373 84.7798 297.113 84.7798 297.113C84.7798 297.113 83.9795 265.511 84.3236 265.166Z" fill="#F34818"/>
<path d="M83.8574 265.166C83.8574 265.166 96.9537 249.307 104.994 260.339C113.035 271.373 84.7057 297.113 84.7057 297.113C84.7057 297.113 84.2015 265.511 83.8574 265.166Z" fill="#F34818"/>
<path d="M190.473 281.395H301.261C307.131 281.395 311.887 286.154 311.887 292.026V315.097C311.887 320.969 307.131 325.728 301.261 325.728H270.351L272.998 348.799L255.984 325.728H190.473C184.603 325.728 179.847 320.969 179.847 315.097V292.026C179.847 286.154 184.603 281.395 190.473 281.395Z" fill="#F9F0E3"/>
<path d="M223.357 302.93C223.357 305.7 221.113 307.948 218.344 307.948C215.573 307.948 213.326 305.7 213.326 302.93C213.326 300.158 215.573 297.913 218.344 297.913C221.113 297.913 223.357 300.158 223.357 302.93Z" fill="#B7B8FA"/>
<path d="M241.93 302.93C241.93 305.7 239.683 307.948 236.914 307.948C234.143 307.948 231.898 305.7 231.898 302.93C231.898 300.158 234.143 297.913 236.914 297.913C239.683 297.913 241.93 300.158 241.93 302.93Z" fill="#B7B8FA"/>
<path d="M260.502 302.93C260.502 305.7 258.253 307.948 255.484 307.948C252.715 307.948 250.47 305.7 250.47 302.93C250.47 300.158 252.715 297.913 255.484 297.913C258.253 297.913 260.502 300.158 260.502 302.93Z" fill="#B7B8FA"/>
<path d="M279.076 302.93C279.076 305.7 276.827 307.948 274.058 307.948C271.289 307.948 269.045 305.7 269.045 302.93C269.045 300.158 271.289 297.913 274.058 297.913C276.827 297.913 279.076 300.158 279.076 302.93Z" fill="#B7B8FA"/>
<path d="M334.532 462.014C357.304 466.227 379.179 451.176 383.39 428.396C387.602 405.615 372.557 383.736 349.785 379.521C328.368 375.558 307.747 388.637 301.865 409.158L283.639 398.949L300.253 419.263C299.493 439.718 313.813 458.181 334.532 462.014Z" fill="#285E89"/>
<path d="M317.519 399.195H327.852L327.004 422.413L321.752 437.494H364.442" stroke="white" stroke-width="3" stroke-linecap="round" stroke-linejoin="round"/>
<path d="M328.02 407.499H367.997L361.901 425.632H329.715L328.02 407.499Z" stroke="white" stroke-width="3" stroke-linecap="round" stroke-linejoin="round"/>
<path d="M334.966 442.322C334.966 444.801 332.954 446.813 330.475 446.813C327.998 446.813 325.987 444.801 325.987 442.322C325.987 439.842 327.998 437.834 330.475 437.834C332.954 437.834 334.966 439.842 334.966 442.322Z" stroke="white" stroke-width="3" stroke-linecap="round" stroke-linejoin="round"/>
<path d="M360.039 442.322C360.039 444.801 358.026 446.813 355.547 446.813C353.068 446.813 351.06 444.801 351.06 442.322C351.06 439.842 353.068 437.834 355.547 437.834C358.026 437.834 360.039 439.842 360.039 442.322Z" stroke="white" stroke-width="3" stroke-linecap="round" stroke-linejoin="round"/>
<path d="M213.917 214.839L222.275 217.415L213.917 219.987L211.346 228.349L208.771 219.987L200.412 217.415L208.771 214.839L211.346 206.478L213.917 214.839Z" fill="#F9F0E3"/>
<path d="M353.06 214.839L361.419 217.415L353.06 219.987L350.49 228.349L347.915 219.987L339.556 217.415L347.915 214.839L350.49 206.478L353.06 214.839Z" fill="#F9F0E3"/>
<path d="M411.794 228.129L420.153 230.701L411.794 233.277L409.221 241.639L406.65 233.277L398.289 230.701L406.65 228.129L409.221 219.767L411.794 228.129Z" fill="#F9F0E3"/>
<path d="M391.269 276.393L399.628 278.965L391.269 281.539L388.694 289.903L386.123 281.539L377.765 278.965L386.123 276.393L388.694 268.031L391.269 276.393Z" fill="#F9F0E3"/>
<path d="M123.719 256.357L132.078 258.929L123.719 261.505L121.144 269.867L118.573 261.505L110.214 258.929L118.573 256.357L121.144 247.995L123.719 256.357Z" fill="#F9F0E3"/>
<path d="M161.227 257.57L172.891 261.162L161.227 264.753L157.636 276.421L154.049 264.753L142.385 261.162L154.049 257.57L157.636 245.9L161.227 257.57Z" fill="#F9F0E3"/>
</svg>
