<svg width="48" height="49" viewBox="0 0 48 49" fill="none" xmlns="http://www.w3.org/2000/svg">
<path fill-rule="evenodd" clip-rule="evenodd" d="M9.263 6.5C8.885 6.5 8.548 6.762 8.418 7.156L6.11 14.167C6.03713 14.3887 5.99999 14.6206 6 14.854V17.643C6 19.22 7.151 20.5 8.571 20.5C9.991 20.5 11.143 19.22 11.143 17.643C11.143 19.221 12.294 20.5 13.714 20.5C15.134 20.5 16.286 19.22 16.286 17.643C16.286 19.221 17.437 20.5 18.857 20.5C20.277 20.5 21.427 19.222 21.429 17.645C21.429 19.222 22.58 20.5 24 20.5C25.42 20.5 26.571 19.22 26.571 17.643C26.571 19.221 27.723 20.5 29.143 20.5C30.563 20.5 31.713 19.222 31.714 17.645C31.715 19.222 32.866 20.5 34.286 20.5C35.706 20.5 36.857 19.22 36.857 17.643C36.857 19.221 38.008 20.5 39.429 20.5C40.849 20.5 42 19.22 42 17.643V14.854C42 14.6206 41.9629 14.3887 41.89 14.167L39.582 7.157C39.452 6.762 39.115 6.5 38.737 6.5H9.263Z" fill="#285E89"/>
<path fill-rule="evenodd" clip-rule="evenodd" d="M10 21.73V29.5H7.5C7.36739 29.5 7.24021 29.5527 7.14645 29.6464C7.05268 29.7402 7 29.8674 7 30V31C7 31.1326 7.05268 31.2598 7.14645 31.3536C7.24021 31.4473 7.36739 31.5 7.5 31.5H40.5C40.6326 31.5 40.7598 31.4473 40.8536 31.3536C40.9473 31.2598 41 31.1326 41 31V30C41 29.8674 40.9473 29.7402 40.8536 29.6464C40.7598 29.5527 40.6326 29.5 40.5 29.5H38V21.73C37.5814 21.5632 37.1947 21.3254 36.857 21.027C36.5977 21.2556 36.3096 21.4493 36 21.603V29.5H12V21.603C11.6904 21.4493 11.4023 21.2556 11.143 21.027C10.807 21.322 10.423 21.562 10 21.73ZM36 19.773C36.085 19.688 36.165 19.597 36.24 19.5H36V19.773ZM37.474 19.5C37.6252 19.6959 37.8021 19.8705 38 20.019V19.5H37.474ZM10 20.019C10.1989 19.8716 10.376 19.6969 10.526 19.5H10V20.019ZM11.76 19.5H12V19.773C11.9141 19.6874 11.8339 19.5962 11.76 19.5ZM8.5 33.5C8.36739 33.5 8.24021 33.5527 8.14645 33.6464C8.05268 33.7402 8 33.8674 8 34V41.5C8 41.7652 8.10536 42.0196 8.29289 42.2071C8.48043 42.3946 8.73478 42.5 9 42.5H39C39.2652 42.5 39.5196 42.3946 39.7071 42.2071C39.8946 42.0196 40 41.7652 40 41.5V34C40 33.8674 39.9473 33.7402 39.8536 33.6464C39.7598 33.5527 39.6326 33.5 39.5 33.5H8.5Z" fill="#285E89"/>
<path d="M17.5 26.5H14.5C14.2239 26.5 14 26.7239 14 27V29C14 29.2761 14.2239 29.5 14.5 29.5H17.5C17.7761 29.5 18 29.2761 18 29V27C18 26.7239 17.7761 26.5 17.5 26.5Z" fill="#285E89"/>
<path d="M19.5 27.5H16.5C16.2239 27.5 16 27.7239 16 28V29C16 29.2761 16.2239 29.5 16.5 29.5H19.5C19.7761 29.5 20 29.2761 20 29V28C20 27.7239 19.7761 27.5 19.5 27.5Z" fill="#285E89"/>
<path d="M22.5 29.5C23.3284 29.5 24 28.8284 24 28C24 27.1716 23.3284 26.5 22.5 26.5C21.6716 26.5 21 27.1716 21 28C21 28.8284 21.6716 29.5 22.5 29.5Z" fill="#285E89"/>
</svg>
